<?xml version="1.0" standalone="no"?>
<!DOCTYPE svg PUBLIC "-//W3C//DTD SVG 20010904//EN" "http://www.w3.org/TR/2001/REC-SVG-20010904/DTD/svg10.dtd">
<svg version="1.0"
    xmlns="http://www.w3.org/2000/svg" width="345.000000pt" height="285.000000pt" viewBox="0 0 345.000000 285.000000" preserveAspectRatio="xMidYMid meet">
    <metadata> Created by potrace 1.10, written by Peter Selinger 2001-2011 </metadata>
    <g transform="translate(0.000000,285.000000) scale(0.100000,-0.100000)" fill="#fff" stroke="none">
        <path d="M260 2295 c-29 -35 -25 -40 481 -525 26 -25 91 -88 145 -140 55 -53
            205 -196 334 -320 337 -322 431 -413 449 -432 10 -12 30 -18 61 -18 52 0 24
            -24 380 324 445 434 533 517 546 512 12 -5 14 -122 14 -715 l0 -711 23 -5 c12
            -3 103 -4 202 -3 l180 3 0 1020 0 1020 -211 0 -212 0 -92 -90 c-51 -49 -111
            -108 -134 -130 -23 -22 -102 -99 -176 -170 -300 -290 -503 -480 -513 -483 -13
            -2 -45 26 -373 343 -479 461 -540 518 -562 527 -9 4 -132 7 -273 7 -215 1
            -259 -1 -269 -14z" />
    </g>
</svg>