<?xml version="1.0" encoding="UTF-8"?>
<svg id="Capa_1" data-name="Capa 1" xmlns="http://www.w3.org/2000/svg" viewBox="0 0 897.51 211">
  <text/>
  <g>
    <polygon points="152.31 175.2 130.13 175.2 130.13 85.03 82.27 138.48 77.39 138.48 .12 53.35 .12 49.21 30.11 49.21 79.86 103.92 129.56 49.21 152.31 49.21 152.31 175.2" style="fill: #fff; stroke: #fff; stroke-miterlimit: 10; stroke-width: .25px;"/>
    <polygon points="249.62 77.74 198.97 175.2 175.46 175.2 175.46 171.06 238.27 49.21 261.41 49.21 324.29 171.06 324.29 175.2 300.58 175.2 249.62 77.74" style="fill: #fff; stroke: #fff; stroke-miterlimit: 10; stroke-width: .25px;"/>
    <polygon points="369.55 92.05 369.55 175.2 347.37 175.2 347.37 47.41 358.46 47.41 448.78 131.1 448.78 49.21 470.97 49.21 470.97 177 459.88 177 369.55 92.05" style="fill: #fff; stroke: #fff; stroke-miterlimit: 10; stroke-width: .25px;"/>
    <rect x="508.5" y="49.21" width="22.18" height="126" style="fill: #fff; stroke: #fff; stroke-miterlimit: 10; stroke-width: .25px;"/>
    <rect x="568.21" y="49.21" width="22.18" height="126" style="fill: #fff; stroke: #fff; stroke-miterlimit: 10; stroke-width: .25px;"/>
    <polygon points="597.05 109.68 657.02 49.21 684.02 49.21 684.02 53.35 626.27 111.12 686.55 171.06 686.55 175.2 657.21 175.2 597.05 114.72 597.05 109.68" style="fill: #fff; stroke: #fff; stroke-miterlimit: 10; stroke-width: .25px;"/>
    <rect x="714.07" y="49.21" width="22.18" height="126" style="fill: #fff; stroke: #fff; stroke-miterlimit: 10; stroke-width: .25px;"/>
    <polygon points="795.97 92.05 795.97 175.2 773.78 175.2 773.78 47.41 784.88 47.41 875.2 131.1 875.2 49.21 897.38 49.21 897.38 177 886.29 177 795.97 92.05" style="fill: #fff; stroke: #fff; stroke-miterlimit: 10; stroke-width: .25px;"/>
  </g>
</svg>